<svg xmlns="http://www.w3.org/2000/svg" xmlns:svg="http://www.w3.org/2000/svg" id="svg121" width="24" height="24" version="1.1" viewBox="0 0 24 24"><metadata id="metadata125"/><title id="title104">icon_temperature_2</title><desc id="desc106">Created with Sketch.</desc><g id="Final" fill="none" fill-rule="evenodd" stroke="none" stroke-width="1"><g id="v1-2-1-home-dashboard" transform="translate(-925.000000, -365.000000)"><g id="scenarios" transform="translate(696.000000, 196.000000)"><g id="Widget-Copy-7" transform="translate(215.000000, 155.000000)"><g id="icon_temperature" transform="translate(14.000000, 14.000000)"><rect id="Rectangle" width="24" height="24" x="0" y="0" fill-rule="nonzero"/><g id="thermometer" transform="translate(7.000000, 1.000000)"><path id="Shape" stroke="#F5A623" stroke-linecap="round" stroke-linejoin="round" stroke-width="2" d="M7,13.76 L7,2.5 C7,1.11928813 5.88071187,0 4.5,0 C3.11928813,-2.22044605e-16 2,1.11928813 2,2.5 L2,13.76 C0.351885607,14.8611927 -0.381613186,16.911099 0.19375696,18.8079004 C0.769127106,20.7047019 2.51785305,22.0016574 4.5,22.0016574 C6.48214695,22.0016574 8.23087289,20.7047019 8.80624304,18.8079004 C9.38161319,16.911099 8.64811439,14.8611927 7,13.76 Z"/><circle id="Oval-2" cx="4.5" cy="17.5" r="3.5" fill="#FFD93E" fill-rule="nonzero"/></g></g></g></g></g></g></svg>